<?xml version="1.0" encoding="UTF-8"?>
<svg xmlns="http://www.w3.org/2000/svg" version="1.1" viewBox="0 0 413.64 200">
  <defs>
    <style>
      .cls-1 {
        fill: #fff;
      }

      .cls-2 {
        fill: #ed1c24;
      }

      .cls-3 {
        fill: #ed1c24;
      }
    </style>
  </defs>
  <!-- Generator: Adobe Illustrator 28.6.0, SVG Export Plug-In . SVG Version: 1.2.0 Build 709)  -->
  <g>
    <g id="Ebene_1">
      <rect class="cls-1" x="214.82" y="1.18" width="197.63" height="197.64"/>
      <path class="cls-2" d="M411.27,197.64h-195.27V2.36h195.27v195.27ZM413.64,0h-200v200h200V0Z"/>
      <polygon class="cls-2" points="270.18 127.56 265.72 127.56 265.72 95.78 254.26 120.98 250.44 120.98 238.81 95.78 238.81 127.56 234.35 127.56 234.35 85.73 238.81 85.73 252.44 115.4 265.72 85.73 270.18 85.73 270.18 127.56"/>
      <path class="cls-2" d="M309.07,127.56h-4.76l-3.35-9.46h-18.27l-3.35,9.46h-4.76l15.39-41.83h3.76l15.33,41.83ZM284.04,114.23h15.57l-7.75-22.15-7.81,22.15Z"/>
      <polygon class="cls-2" points="329.51 106.12 342.44 127.56 337.27 127.56 327.1 110 316.88 127.56 311.83 127.56 324.64 106.12 312.65 85.73 317.82 85.73 327.1 102.24 336.38 85.73 341.55 85.73 329.51 106.12"/>
      <polygon class="cls-2" points="263.13 179.55 258.67 179.55 258.67 160.46 238.81 160.46 238.81 179.55 234.35 179.55 234.35 137.72 238.81 137.72 238.81 156.46 258.67 156.46 258.67 137.72 263.13 137.72 263.13 179.55"/>
      <path class="cls-2" d="M304.37,179.55h-4.76l-3.35-9.46h-18.27l-3.35,9.46h-4.76l15.39-41.83h3.76l15.33,41.83ZM279.34,166.22h15.57l-7.75-22.15-7.81,22.15Z"/>
      <path class="cls-2" d="M338.56,165.75c0,8.34-6.17,14.16-14.63,14.16s-14.57-5.82-14.57-14.16v-28.02h4.46v27.67c0,6.34,4,10.52,10.1,10.52s10.16-4.17,10.16-10.52v-27.67h4.46v28.02Z"/>
      <path class="cls-2" d="M366.11,137.72c7.28,0,12.39,4.41,12.39,11.63,0,6.11-3.7,10.1-9.1,11.22l9.93,18.98h-5.23l-9.52-18.56h-10.05v18.56h-4.46v-41.83h16.04ZM354.54,141.72v15.33h11.16c4.88,0,8.34-2.53,8.34-7.64s-3.46-7.7-8.34-7.7h-11.16Z"/>
      <rect class="cls-2" x="388.61" y="137.72" width="4.46" height="41.83"/>
      <rect class="cls-3" width="200" height="200"/>
      <polygon class="cls-1" points="164.33 34.23 164.33 127.76 115.54 127.76 115.54 81.08 68.03 126.53 20.53 81.08 20.53 179.43 35.66 179.43 35.66 117.15 68.03 148.09 100.4 117.15 100.4 179.43 115.54 179.43 115.54 142.9 164.33 142.9 164.33 179.43 179.47 179.43 179.47 19.77 164.33 34.23"/>
    </g>
  </g>
</svg>